<mxfile host="Electron" agent="Mozilla/5.0 (Windows NT 10.0; Win64; x64) AppleWebKit/537.36 (KHTML, like Gecko) draw.io/24.7.17 Chrome/128.0.6613.36 Electron/32.0.1 Safari/537.36" version="24.7.17">
  <diagram id="C5RBs43oDa-KdzZeNtuy" name="Список клієнтів">
    <mxGraphModel dx="2901" dy="1196" grid="1" gridSize="10" guides="1" tooltips="1" connect="1" arrows="1" fold="1" page="1" pageScale="1" pageWidth="827" pageHeight="1169" math="0" shadow="0">
      <root>
        <mxCell id="WIyWlLk6GJQsqaUBKTNV-0" />
        <mxCell id="WIyWlLk6GJQsqaUBKTNV-1" parent="WIyWlLk6GJQsqaUBKTNV-0" />
        <mxCell id="K7pLdBm7brwD5z3qVgqf-4" value="Вивід списку клієнтів" style="ellipse;whiteSpace=wrap;html=1;" vertex="1" parent="WIyWlLk6GJQsqaUBKTNV-1">
          <mxGeometry x="360" y="150" width="120" height="80" as="geometry" />
        </mxCell>
        <mxCell id="K7pLdBm7brwD5z3qVgqf-5" value="&lt;font style=&quot;font-size: 40px;&quot;&gt;Екран списку клієнтів&lt;/font&gt;" style="text;html=1;align=center;verticalAlign=middle;whiteSpace=wrap;rounded=0;fontSize=40;" vertex="1" parent="WIyWlLk6GJQsqaUBKTNV-1">
          <mxGeometry width="400" height="50" as="geometry" />
        </mxCell>
        <mxCell id="K7pLdBm7brwD5z3qVgqf-6" value="" style="ellipse;html=1;shape=startState;fillColor=#000000;strokeColor=#ff0000;" vertex="1" parent="WIyWlLk6GJQsqaUBKTNV-1">
          <mxGeometry x="405" y="60" width="30" height="30" as="geometry" />
        </mxCell>
        <mxCell id="K7pLdBm7brwD5z3qVgqf-7" value="" style="edgeStyle=orthogonalEdgeStyle;html=1;verticalAlign=bottom;endArrow=open;endSize=8;strokeColor=#ff0000;rounded=0;" edge="1" source="K7pLdBm7brwD5z3qVgqf-6" parent="WIyWlLk6GJQsqaUBKTNV-1">
          <mxGeometry relative="1" as="geometry">
            <mxPoint x="420" y="150" as="targetPoint" />
          </mxGeometry>
        </mxCell>
        <mxCell id="K7pLdBm7brwD5z3qVgqf-8" value="" style="endArrow=classic;html=1;rounded=0;exitX=0;exitY=0.5;exitDx=0;exitDy=0;entryX=0.5;entryY=0;entryDx=0;entryDy=0;" edge="1" parent="WIyWlLk6GJQsqaUBKTNV-1" source="K7pLdBm7brwD5z3qVgqf-4" target="K7pLdBm7brwD5z3qVgqf-9">
          <mxGeometry width="50" height="50" relative="1" as="geometry">
            <mxPoint x="60" y="360" as="sourcePoint" />
            <mxPoint x="110" y="310" as="targetPoint" />
          </mxGeometry>
        </mxCell>
        <mxCell id="K7pLdBm7brwD5z3qVgqf-9" value="Додати клієнта" style="ellipse;whiteSpace=wrap;html=1;" vertex="1" parent="WIyWlLk6GJQsqaUBKTNV-1">
          <mxGeometry x="40" y="310" width="120" height="80" as="geometry" />
        </mxCell>
        <mxCell id="K7pLdBm7brwD5z3qVgqf-10" value="" style="endArrow=classic;html=1;rounded=0;exitX=0.5;exitY=1;exitDx=0;exitDy=0;entryX=0.5;entryY=0;entryDx=0;entryDy=0;" edge="1" parent="WIyWlLk6GJQsqaUBKTNV-1" target="K7pLdBm7brwD5z3qVgqf-11" source="K7pLdBm7brwD5z3qVgqf-4">
          <mxGeometry width="50" height="50" relative="1" as="geometry">
            <mxPoint x="849" y="200" as="sourcePoint" />
            <mxPoint x="620" y="320" as="targetPoint" />
          </mxGeometry>
        </mxCell>
        <mxCell id="K7pLdBm7brwD5z3qVgqf-11" value="Видалити клієнта" style="ellipse;whiteSpace=wrap;html=1;" vertex="1" parent="WIyWlLk6GJQsqaUBKTNV-1">
          <mxGeometry x="360" y="310" width="120" height="80" as="geometry" />
        </mxCell>
        <mxCell id="K7pLdBm7brwD5z3qVgqf-12" value="Повернутися на попередній екран" style="ellipse;whiteSpace=wrap;html=1;" vertex="1" parent="WIyWlLk6GJQsqaUBKTNV-1">
          <mxGeometry x="200" y="310" width="120" height="80" as="geometry" />
        </mxCell>
        <mxCell id="K7pLdBm7brwD5z3qVgqf-13" value="" style="endArrow=classic;html=1;rounded=0;entryX=0.5;entryY=0;entryDx=0;entryDy=0;" edge="1" parent="WIyWlLk6GJQsqaUBKTNV-1" source="K7pLdBm7brwD5z3qVgqf-4" target="K7pLdBm7brwD5z3qVgqf-12">
          <mxGeometry width="50" height="50" relative="1" as="geometry">
            <mxPoint x="300" y="222.5" as="sourcePoint" />
            <mxPoint x="230" y="272.5" as="targetPoint" />
          </mxGeometry>
        </mxCell>
        <mxCell id="K7pLdBm7brwD5z3qVgqf-14" value="Ввести ім&#39;я клієнта" style="ellipse;whiteSpace=wrap;html=1;" vertex="1" parent="WIyWlLk6GJQsqaUBKTNV-1">
          <mxGeometry x="-100" y="520" width="120" height="80" as="geometry" />
        </mxCell>
        <mxCell id="K7pLdBm7brwD5z3qVgqf-15" value="" style="endArrow=classic;html=1;rounded=0;entryX=0.5;entryY=0;entryDx=0;entryDy=0;exitX=0;exitY=0.5;exitDx=0;exitDy=0;" edge="1" parent="WIyWlLk6GJQsqaUBKTNV-1" source="K7pLdBm7brwD5z3qVgqf-20" target="K7pLdBm7brwD5z3qVgqf-14">
          <mxGeometry width="50" height="50" relative="1" as="geometry">
            <mxPoint x="20" y="480" as="sourcePoint" />
            <mxPoint x="99.5" y="480" as="targetPoint" />
          </mxGeometry>
        </mxCell>
        <mxCell id="K7pLdBm7brwD5z3qVgqf-17" value="Повернутись до списку" style="ellipse;whiteSpace=wrap;html=1;" vertex="1" parent="WIyWlLk6GJQsqaUBKTNV-1">
          <mxGeometry x="40" y="640" width="120" height="80" as="geometry" />
        </mxCell>
        <mxCell id="K7pLdBm7brwD5z3qVgqf-18" value="" style="endArrow=classic;html=1;rounded=0;entryX=0.5;entryY=0;entryDx=0;entryDy=0;exitX=0.5;exitY=1;exitDx=0;exitDy=0;" edge="1" parent="WIyWlLk6GJQsqaUBKTNV-1" target="K7pLdBm7brwD5z3qVgqf-17" source="K7pLdBm7brwD5z3qVgqf-20">
          <mxGeometry width="50" height="50" relative="1" as="geometry">
            <mxPoint x="160" y="470" as="sourcePoint" />
            <mxPoint x="359.5" y="480" as="targetPoint" />
          </mxGeometry>
        </mxCell>
        <mxCell id="K7pLdBm7brwD5z3qVgqf-20" value="&lt;span style=&quot;font-size: 14px; text-wrap: nowrap; background-color: rgb(255, 255, 255);&quot;&gt;Вивід модального&lt;/span&gt;&lt;div&gt;&lt;span style=&quot;font-size: 14px; text-wrap: nowrap; background-color: rgb(255, 255, 255);&quot;&gt;вікна&lt;/span&gt;&lt;/div&gt;" style="rounded=0;whiteSpace=wrap;html=1;" vertex="1" parent="WIyWlLk6GJQsqaUBKTNV-1">
          <mxGeometry x="40" y="440" width="120" height="60" as="geometry" />
        </mxCell>
        <mxCell id="K7pLdBm7brwD5z3qVgqf-21" value="" style="endArrow=classic;html=1;rounded=0;entryX=0.5;entryY=0;entryDx=0;entryDy=0;exitX=0.5;exitY=1;exitDx=0;exitDy=0;" edge="1" parent="WIyWlLk6GJQsqaUBKTNV-1" source="K7pLdBm7brwD5z3qVgqf-9" target="K7pLdBm7brwD5z3qVgqf-20">
          <mxGeometry width="50" height="50" relative="1" as="geometry">
            <mxPoint x="40" y="370" as="sourcePoint" />
            <mxPoint x="-40" y="420" as="targetPoint" />
          </mxGeometry>
        </mxCell>
        <mxCell id="K7pLdBm7brwD5z3qVgqf-22" value="" style="ellipse;html=1;shape=endState;fillColor=#000000;strokeColor=#ff0000;" vertex="1" parent="WIyWlLk6GJQsqaUBKTNV-1">
          <mxGeometry x="245" y="450" width="30" height="30" as="geometry" />
        </mxCell>
        <mxCell id="K7pLdBm7brwD5z3qVgqf-23" value="" style="endArrow=classic;html=1;rounded=0;entryX=0.5;entryY=0;entryDx=0;entryDy=0;exitX=0.5;exitY=1;exitDx=0;exitDy=0;" edge="1" parent="WIyWlLk6GJQsqaUBKTNV-1" source="K7pLdBm7brwD5z3qVgqf-12" target="K7pLdBm7brwD5z3qVgqf-22">
          <mxGeometry width="50" height="50" relative="1" as="geometry">
            <mxPoint x="200" y="472.5" as="sourcePoint" />
            <mxPoint x="250" y="422.5" as="targetPoint" />
          </mxGeometry>
        </mxCell>
        <mxCell id="K7pLdBm7brwD5z3qVgqf-26" value="" style="endArrow=classic;html=1;rounded=0;exitX=0.5;exitY=1;exitDx=0;exitDy=0;entryX=0.5;entryY=0;entryDx=0;entryDy=0;" edge="1" parent="WIyWlLk6GJQsqaUBKTNV-1" source="K7pLdBm7brwD5z3qVgqf-14" target="K7pLdBm7brwD5z3qVgqf-27">
          <mxGeometry width="50" height="50" relative="1" as="geometry">
            <mxPoint x="-90" y="740" as="sourcePoint" />
            <mxPoint x="-40" y="690" as="targetPoint" />
          </mxGeometry>
        </mxCell>
        <mxCell id="K7pLdBm7brwD5z3qVgqf-27" value="Підтеврдити створення" style="ellipse;whiteSpace=wrap;html=1;" vertex="1" parent="WIyWlLk6GJQsqaUBKTNV-1">
          <mxGeometry x="-100" y="640" width="120" height="80" as="geometry" />
        </mxCell>
        <mxCell id="K7pLdBm7brwD5z3qVgqf-28" value="Повернутись до списку" style="ellipse;whiteSpace=wrap;html=1;" vertex="1" parent="WIyWlLk6GJQsqaUBKTNV-1">
          <mxGeometry x="500" y="520" width="120" height="80" as="geometry" />
        </mxCell>
        <mxCell id="K7pLdBm7brwD5z3qVgqf-29" value="" style="endArrow=classic;html=1;rounded=0;entryX=0.5;entryY=0;entryDx=0;entryDy=0;" edge="1" parent="WIyWlLk6GJQsqaUBKTNV-1" target="K7pLdBm7brwD5z3qVgqf-28">
          <mxGeometry width="50" height="50" relative="1" as="geometry">
            <mxPoint x="480" y="470" as="sourcePoint" />
            <mxPoint x="679.5" y="480" as="targetPoint" />
          </mxGeometry>
        </mxCell>
        <mxCell id="K7pLdBm7brwD5z3qVgqf-30" value="&lt;span style=&quot;font-size: 14px; text-wrap: nowrap; background-color: rgb(255, 255, 255);&quot;&gt;Вивід модального&lt;/span&gt;&lt;div&gt;&lt;span style=&quot;font-size: 14px; text-wrap: nowrap; background-color: rgb(255, 255, 255);&quot;&gt;вікна&lt;/span&gt;&lt;/div&gt;" style="rounded=0;whiteSpace=wrap;html=1;" vertex="1" parent="WIyWlLk6GJQsqaUBKTNV-1">
          <mxGeometry x="360" y="440" width="120" height="60" as="geometry" />
        </mxCell>
        <mxCell id="K7pLdBm7brwD5z3qVgqf-31" value="" style="endArrow=classic;html=1;rounded=0;entryX=0.5;entryY=0;entryDx=0;entryDy=0;exitX=0.5;exitY=1;exitDx=0;exitDy=0;" edge="1" parent="WIyWlLk6GJQsqaUBKTNV-1" target="K7pLdBm7brwD5z3qVgqf-30" source="K7pLdBm7brwD5z3qVgqf-11">
          <mxGeometry width="50" height="50" relative="1" as="geometry">
            <mxPoint x="740" y="360" as="sourcePoint" />
            <mxPoint x="600" y="420" as="targetPoint" />
          </mxGeometry>
        </mxCell>
        <mxCell id="K7pLdBm7brwD5z3qVgqf-32" value="" style="endArrow=classic;html=1;rounded=0;exitX=0.5;exitY=1;exitDx=0;exitDy=0;entryX=0.5;entryY=0;entryDx=0;entryDy=0;" edge="1" parent="WIyWlLk6GJQsqaUBKTNV-1" target="K7pLdBm7brwD5z3qVgqf-33" source="K7pLdBm7brwD5z3qVgqf-30">
          <mxGeometry width="50" height="50" relative="1" as="geometry">
            <mxPoint x="280" y="480" as="sourcePoint" />
            <mxPoint x="280" y="570" as="targetPoint" />
          </mxGeometry>
        </mxCell>
        <mxCell id="K7pLdBm7brwD5z3qVgqf-33" value="Підтеврдити створення" style="ellipse;whiteSpace=wrap;html=1;" vertex="1" parent="WIyWlLk6GJQsqaUBKTNV-1">
          <mxGeometry x="360" y="520" width="120" height="80" as="geometry" />
        </mxCell>
        <mxCell id="K7pLdBm7brwD5z3qVgqf-34" value="" style="endArrow=classic;html=1;rounded=0;exitX=1;exitY=0.5;exitDx=0;exitDy=0;entryX=0.5;entryY=0;entryDx=0;entryDy=0;" edge="1" parent="WIyWlLk6GJQsqaUBKTNV-1" target="K7pLdBm7brwD5z3qVgqf-35" source="K7pLdBm7brwD5z3qVgqf-4">
          <mxGeometry width="50" height="50" relative="1" as="geometry">
            <mxPoint x="660" y="190" as="sourcePoint" />
            <mxPoint x="860" y="280" as="targetPoint" />
          </mxGeometry>
        </mxCell>
        <mxCell id="K7pLdBm7brwD5z3qVgqf-35" value="Сортувати список за" style="ellipse;whiteSpace=wrap;html=1;" vertex="1" parent="WIyWlLk6GJQsqaUBKTNV-1">
          <mxGeometry x="680" y="310" width="120" height="80" as="geometry" />
        </mxCell>
        <mxCell id="K7pLdBm7brwD5z3qVgqf-36" value="&lt;span style=&quot;font-size: 14px; text-wrap: nowrap; background-color: rgb(255, 255, 255);&quot;&gt;Алфавітом&lt;/span&gt;" style="rounded=0;whiteSpace=wrap;html=1;" vertex="1" parent="WIyWlLk6GJQsqaUBKTNV-1">
          <mxGeometry x="680" y="430" width="120" height="60" as="geometry" />
        </mxCell>
        <mxCell id="K7pLdBm7brwD5z3qVgqf-37" value="&lt;span style=&quot;font-size: 14px; text-wrap: nowrap; background-color: rgb(255, 255, 255);&quot;&gt;Датою створення&lt;/span&gt;&lt;div&gt;&lt;span style=&quot;font-size: 14px; text-wrap: nowrap; background-color: rgb(255, 255, 255);&quot;&gt;запису&lt;/span&gt;&lt;/div&gt;" style="rounded=0;whiteSpace=wrap;html=1;" vertex="1" parent="WIyWlLk6GJQsqaUBKTNV-1">
          <mxGeometry x="880" y="430" width="120" height="60" as="geometry" />
        </mxCell>
        <mxCell id="K7pLdBm7brwD5z3qVgqf-38" value="&lt;span style=&quot;font-size: 14px; text-wrap: nowrap; background-color: rgb(255, 255, 255);&quot;&gt;Пізніше&lt;/span&gt;" style="rounded=0;whiteSpace=wrap;html=1;" vertex="1" parent="WIyWlLk6GJQsqaUBKTNV-1">
          <mxGeometry x="880" y="550" width="120" height="60" as="geometry" />
        </mxCell>
        <mxCell id="K7pLdBm7brwD5z3qVgqf-39" value="&lt;span style=&quot;font-size: 14px; text-wrap: nowrap; background-color: rgb(255, 255, 255);&quot;&gt;Раніше&lt;/span&gt;" style="rounded=0;whiteSpace=wrap;html=1;" vertex="1" parent="WIyWlLk6GJQsqaUBKTNV-1">
          <mxGeometry x="1040" y="550" width="120" height="60" as="geometry" />
        </mxCell>
        <mxCell id="K7pLdBm7brwD5z3qVgqf-40" value="" style="endArrow=classic;html=1;rounded=0;entryX=0.5;entryY=0;entryDx=0;entryDy=0;exitX=0.5;exitY=1;exitDx=0;exitDy=0;" edge="1" parent="WIyWlLk6GJQsqaUBKTNV-1" source="K7pLdBm7brwD5z3qVgqf-35" target="K7pLdBm7brwD5z3qVgqf-36">
          <mxGeometry width="50" height="50" relative="1" as="geometry">
            <mxPoint x="739.5" y="390" as="sourcePoint" />
            <mxPoint x="739.5" y="440" as="targetPoint" />
          </mxGeometry>
        </mxCell>
        <mxCell id="K7pLdBm7brwD5z3qVgqf-41" value="" style="endArrow=classic;html=1;rounded=0;entryX=0.5;entryY=0;entryDx=0;entryDy=0;exitX=1;exitY=1;exitDx=0;exitDy=0;" edge="1" parent="WIyWlLk6GJQsqaUBKTNV-1" source="K7pLdBm7brwD5z3qVgqf-35" target="K7pLdBm7brwD5z3qVgqf-37">
          <mxGeometry width="50" height="50" relative="1" as="geometry">
            <mxPoint x="850" y="390" as="sourcePoint" />
            <mxPoint x="750" y="440" as="targetPoint" />
          </mxGeometry>
        </mxCell>
        <mxCell id="K7pLdBm7brwD5z3qVgqf-42" value="&lt;span style=&quot;font-size: 14px; text-wrap: nowrap; background-color: rgb(255, 255, 255);&quot;&gt;А до Я&lt;/span&gt;" style="rounded=0;whiteSpace=wrap;html=1;" vertex="1" parent="WIyWlLk6GJQsqaUBKTNV-1">
          <mxGeometry x="600" y="650" width="120" height="60" as="geometry" />
        </mxCell>
        <mxCell id="K7pLdBm7brwD5z3qVgqf-43" value="&lt;span style=&quot;font-size: 14px; text-wrap: nowrap; background-color: rgb(255, 255, 255);&quot;&gt;Я до А&lt;/span&gt;" style="rounded=0;whiteSpace=wrap;html=1;" vertex="1" parent="WIyWlLk6GJQsqaUBKTNV-1">
          <mxGeometry x="760" y="650" width="120" height="60" as="geometry" />
        </mxCell>
        <mxCell id="K7pLdBm7brwD5z3qVgqf-44" value="" style="endArrow=classic;html=1;rounded=0;entryX=0.5;entryY=0;entryDx=0;entryDy=0;exitX=0.25;exitY=1;exitDx=0;exitDy=0;" edge="1" parent="WIyWlLk6GJQsqaUBKTNV-1" source="K7pLdBm7brwD5z3qVgqf-36" target="K7pLdBm7brwD5z3qVgqf-42">
          <mxGeometry width="50" height="50" relative="1" as="geometry">
            <mxPoint x="750" y="400" as="sourcePoint" />
            <mxPoint x="750" y="440" as="targetPoint" />
          </mxGeometry>
        </mxCell>
        <mxCell id="K7pLdBm7brwD5z3qVgqf-45" value="" style="endArrow=classic;html=1;rounded=0;entryX=0.5;entryY=0;entryDx=0;entryDy=0;exitX=0.75;exitY=1;exitDx=0;exitDy=0;" edge="1" parent="WIyWlLk6GJQsqaUBKTNV-1" source="K7pLdBm7brwD5z3qVgqf-36" target="K7pLdBm7brwD5z3qVgqf-43">
          <mxGeometry width="50" height="50" relative="1" as="geometry">
            <mxPoint x="720" y="500" as="sourcePoint" />
            <mxPoint x="670" y="660" as="targetPoint" />
          </mxGeometry>
        </mxCell>
        <mxCell id="K7pLdBm7brwD5z3qVgqf-46" value="" style="endArrow=classic;html=1;rounded=0;entryX=0.5;entryY=0;entryDx=0;entryDy=0;exitX=0.5;exitY=1;exitDx=0;exitDy=0;" edge="1" parent="WIyWlLk6GJQsqaUBKTNV-1" source="K7pLdBm7brwD5z3qVgqf-37" target="K7pLdBm7brwD5z3qVgqf-38">
          <mxGeometry width="50" height="50" relative="1" as="geometry">
            <mxPoint x="750" y="400" as="sourcePoint" />
            <mxPoint x="750" y="440" as="targetPoint" />
          </mxGeometry>
        </mxCell>
        <mxCell id="K7pLdBm7brwD5z3qVgqf-47" value="" style="endArrow=classic;html=1;rounded=0;entryX=0.5;entryY=0;entryDx=0;entryDy=0;exitX=1;exitY=0.5;exitDx=0;exitDy=0;" edge="1" parent="WIyWlLk6GJQsqaUBKTNV-1" source="K7pLdBm7brwD5z3qVgqf-37" target="K7pLdBm7brwD5z3qVgqf-39">
          <mxGeometry width="50" height="50" relative="1" as="geometry">
            <mxPoint x="1080" y="480" as="sourcePoint" />
            <mxPoint x="1080" y="540" as="targetPoint" />
          </mxGeometry>
        </mxCell>
        <mxCell id="K7pLdBm7brwD5z3qVgqf-48" value="" style="verticalLabelPosition=bottom;verticalAlign=top;html=1;shape=mxgraph.basic.tick;fillColor=#4D9900;strokeColor=#82b366;" vertex="1" parent="WIyWlLk6GJQsqaUBKTNV-1">
          <mxGeometry x="140" y="300" width="34" height="40" as="geometry" />
        </mxCell>
        <mxCell id="K7pLdBm7brwD5z3qVgqf-50" value="" style="verticalLabelPosition=bottom;verticalAlign=top;html=1;shape=mxgraph.basic.tick;fillColor=#4D9900;strokeColor=#82b366;" vertex="1" parent="WIyWlLk6GJQsqaUBKTNV-1">
          <mxGeometry x="450" y="300" width="34" height="40" as="geometry" />
        </mxCell>
        <mxCell id="K7pLdBm7brwD5z3qVgqf-51" value="" style="verticalLabelPosition=bottom;verticalAlign=top;html=1;shape=mxgraph.basic.x;fillColor=#CC0066;" vertex="1" parent="WIyWlLk6GJQsqaUBKTNV-1">
          <mxGeometry x="780" y="300" width="40" height="40" as="geometry" />
        </mxCell>
        <mxCell id="K7pLdBm7brwD5z3qVgqf-52" value="" style="verticalLabelPosition=bottom;verticalAlign=top;html=1;shape=mxgraph.basic.x;fillColor=#CC0066;" vertex="1" parent="WIyWlLk6GJQsqaUBKTNV-1">
          <mxGeometry x="300" y="300" width="40" height="40" as="geometry" />
        </mxCell>
      </root>
    </mxGraphModel>
  </diagram>
</mxfile>
